<svg width="48" height="48" viewBox="0 0 48 48" fill="none" xmlns="http://www.w3.org/2000/svg">
<path d="M23.9813 47.9452C37.221 47.9452 47.9539 37.2369 47.9539 24.0274C47.9539 10.818 37.221 0.109619 23.9813 0.109619C10.7417 0.109619 0.00878906 10.818 0.00878906 24.0274C0.00878906 37.2369 10.7417 47.9452 23.9813 47.9452Z" fill="#FBCABF"/>
<path d="M12.6032 41.017C17.1602 41.017 20.8544 37.3313 20.8544 32.7847C20.8544 28.2381 17.1602 24.5524 12.6032 24.5524C8.04622 24.5524 4.35205 28.2381 4.35205 32.7847C4.35205 37.3313 8.04622 41.017 12.6032 41.017Z" fill="#E88A9F"/>
<path d="M36.0793 41.017C40.6363 41.017 44.3305 37.3313 44.3305 32.7847C44.3305 28.2381 40.6363 24.5524 36.0793 24.5524C31.5223 24.5524 27.8281 28.2381 27.8281 32.7847C27.8281 37.3313 31.5223 41.017 36.0793 41.017Z" fill="#E88A9F"/>
<path d="M27.9829 27.5365C27.9357 29.714 26.2002 31.5288 23.9814 31.5288C21.7627 31.5288 20.0272 29.714 19.9789 27.5365C19.9558 26.434 18.2368 26.4307 18.261 27.5365C18.3269 30.6444 20.8181 33.2351 23.9814 33.2439C27.1448 33.2526 29.6349 30.6334 29.7008 27.5365C29.725 26.4318 28.006 26.4329 27.9829 27.5365Z" fill="#27272A"/>
<path d="M31.9163 24.2148C33.4298 24.2148 34.6568 22.9907 34.6568 21.4806C34.6568 19.9705 33.4298 18.7463 31.9163 18.7463C30.4027 18.7463 29.1758 19.9705 29.1758 21.4806C29.1758 22.9907 30.4027 24.2148 31.9163 24.2148Z" fill="#27272A"/>
<path d="M30.7267 22.1698C31.3837 22.1698 31.9162 21.6385 31.9162 20.983C31.9162 20.3275 31.3837 19.7961 30.7267 19.7961C30.0697 19.7961 29.5371 20.3275 29.5371 20.983C29.5371 21.6385 30.0697 22.1698 30.7267 22.1698Z" fill="#FDFEFE"/>
<path d="M17.1428 24.2148C18.6564 24.2148 19.8833 22.9907 19.8833 21.4806C19.8833 19.9705 18.6564 18.7463 17.1428 18.7463C15.6293 18.7463 14.4023 19.9705 14.4023 21.4806C14.4023 22.9907 15.6293 24.2148 17.1428 24.2148Z" fill="#27272A"/>
<path d="M16.152 22.0472C16.8089 22.0472 17.3415 21.5158 17.3415 20.8603C17.3415 20.2048 16.8089 19.6735 16.152 19.6735C15.495 19.6735 14.9624 20.2048 14.9624 20.8603C14.9624 21.5158 15.495 22.0472 16.152 22.0472Z" fill="#FDFEFE"/>
<path fill-rule="evenodd" clip-rule="evenodd" d="M47.945 23.9978C47.945 37.2072 37.2366 47.9156 24.0272 47.9156C10.8177 47.9156 0.109375 37.2072 0.109375 23.9978C0.109375 10.7883 10.8177 0.0799561 24.0272 0.0799561C37.2366 0.0799561 47.945 10.7883 47.945 23.9978ZM18.0537 40.3582C16.4718 37.7133 13.8097 35.7888 10.6767 35.1941C10.6292 32.1126 9.28599 29.1149 6.87011 27.0334C8.36972 24.3409 8.7053 21.0732 7.65383 18.0627C10.2988 16.4807 12.2232 13.8186 12.8179 10.6857C15.8994 10.6381 18.8971 9.29489 20.9786 6.87902C23.6711 8.37864 26.9388 8.71423 29.9493 7.66275C31.5313 10.3077 34.1934 12.2321 37.3263 12.8268C37.3739 15.9083 38.7171 18.9061 41.133 20.9875C39.6333 23.68 39.2978 26.9477 40.3492 29.9583C37.7043 31.5402 35.7799 34.2023 35.1852 37.3352C32.1036 37.3828 29.1059 38.726 27.0245 41.1419C24.332 39.6423 21.0643 39.3067 18.0537 40.3582Z" fill="#27272A"/>
</svg>
