<svg width="64" height="64" viewBox="0 0 64 64" fill="none" xmlns="http://www.w3.org/2000/svg">
<path d="M32.008 59.2574C47.0291 59.2574 59.2061 47.0804 59.2061 32.0592C59.2061 17.0381 47.0291 4.86108 32.008 4.86108C16.9868 4.86108 4.80981 17.0381 4.80981 32.0592C4.80981 47.0804 16.9868 59.2574 32.008 59.2574Z" fill="#FBCABF"/>
<path d="M16.7949 54.8603C22.8779 54.8603 27.8091 49.9291 27.8091 43.8462C27.8091 37.7632 22.8779 32.832 16.7949 32.832C10.712 32.832 5.78076 37.7632 5.78076 43.8462C5.78076 49.9291 10.712 54.8603 16.7949 54.8603Z" fill="#E88A9F"/>
<path d="M48.1321 54.8603C54.215 54.8603 59.1462 49.9291 59.1462 43.8462C59.1462 37.7632 54.215 32.832 48.1321 32.832C42.0491 32.832 37.1179 37.7632 37.1179 43.8462C37.1179 49.9291 42.0491 54.8603 48.1321 54.8603Z" fill="#E88A9F"/>
<path d="M26.6402 43.3525C26.7032 40.4392 29.0198 38.0112 31.9816 38.0112C34.9433 38.0112 37.2599 40.4392 37.3244 43.3525C37.3552 44.8276 39.6498 44.8319 39.6176 43.3525C39.5296 39.1944 36.2043 35.7283 31.9816 35.7165C27.7589 35.7048 24.435 39.209 24.347 43.3525C24.3148 44.8305 26.6094 44.829 26.6402 43.3525Z" fill="#231F20"/>
<path d="M42.5749 32.3803C44.5953 32.3803 46.2331 30.7425 46.2331 28.7222C46.2331 26.7018 44.5953 25.064 42.5749 25.064C40.5546 25.064 38.9167 26.7018 38.9167 28.7222C38.9167 30.7425 40.5546 32.3803 42.5749 32.3803Z" fill="#231F20"/>
<path d="M40.9871 29.6443C41.864 29.6443 42.575 28.9334 42.575 28.0564C42.575 27.1794 41.864 26.4685 40.9871 26.4685C40.1101 26.4685 39.3992 27.1794 39.3992 28.0564C39.3992 28.9334 40.1101 29.6443 40.9871 29.6443Z" fill="#FDFEFE"/>
<path d="M22.8547 32.3801C24.8751 32.3801 26.5129 30.7423 26.5129 28.7219C26.5129 26.7015 24.8751 25.0637 22.8547 25.0637C20.8344 25.0637 19.1965 26.7015 19.1965 28.7219C19.1965 30.7423 20.8344 32.3801 22.8547 32.3801Z" fill="#231F20"/>
<path d="M21.5322 29.48C22.4092 29.48 23.1201 28.7691 23.1201 27.8921C23.1201 27.0151 22.4092 26.3042 21.5322 26.3042C20.6553 26.3042 19.9443 27.0151 19.9443 27.8921C19.9443 28.7691 20.6553 29.48 21.5322 29.48Z" fill="#FDFEFE"/>
<path fill-rule="evenodd" clip-rule="evenodd" d="M64 32C64 49.6731 49.6731 64 32 64C14.3269 64 0 49.6731 0 32C0 14.3269 14.3269 0 32 0C49.6731 0 64 14.3269 64 32ZM24.008 53.8888C21.8915 50.3502 18.3298 47.7754 14.1382 46.9798C14.0746 42.8569 12.2775 38.8463 9.04531 36.0614C11.0516 32.4591 11.5006 28.0872 10.0938 24.0594C13.6325 21.9429 16.2073 18.3812 17.0029 14.1896C21.1258 14.126 25.1364 12.3288 27.9213 9.09658C31.5236 11.103 35.8955 11.552 39.9234 10.1452C42.0399 13.6839 45.6015 16.2586 49.7931 17.0542C49.8567 21.1771 51.6538 25.1878 54.8861 27.9726C52.8797 31.5749 52.4308 35.9468 53.8375 39.9747C50.2989 42.0912 47.7241 45.6528 46.9285 49.8445C42.8056 49.9081 38.7949 51.7052 36.0101 54.9374C32.4078 52.9311 28.0359 52.4821 24.008 53.8888Z" fill="#231F20"/>
</svg>
