<svg width="20" height="20" viewBox="0 0 20 20" fill="none" xmlns="http://www.w3.org/2000/svg">
<path fill-rule="evenodd" clip-rule="evenodd" d="M2.559 9.104C2.37565 9.36681 2.27734 9.67955 2.27734 10C2.27734 10.3204 2.37565 10.6332 2.559 10.896C3.63 12.454 6.21 15.5 9.999 15.5C13.789 15.5 16.369 12.454 17.441 10.896C17.6242 10.6331 17.7224 10.3204 17.7224 10C17.7224 9.67958 17.6242 9.36687 17.441 9.104C16.369 7.546 13.789 4.5 10 4.5C6.211 4.5 3.631 7.546 2.559 9.104ZM12.499 10C12.499 10.663 12.2356 11.2989 11.7668 11.7678C11.2979 12.2366 10.662 12.5 9.999 12.5C9.33596 12.5 8.70007 12.2366 8.23123 11.7678C7.76239 11.2989 7.499 10.663 7.499 10C7.499 9.33696 7.76239 8.70107 8.23123 8.23223C8.70007 7.76339 9.33596 7.5 9.999 7.5C10.662 7.5 11.2979 7.76339 11.7668 8.23223C12.2356 8.70107 12.499 9.33696 12.499 10Z" fill="#6466E9"/>
</svg>
