<svg width="20" height="21" viewBox="0 0 20 21" fill="none" xmlns="http://www.w3.org/2000/svg">
<path fill-rule="evenodd" clip-rule="evenodd" d="M16 6.69702C16.2652 6.69702 16.5196 6.80238 16.7071 6.98991C16.8946 7.17745 17 7.4318 17 7.69702V13.697C17 13.9622 16.8946 14.2166 16.7071 14.4041C16.5196 14.5917 16.2652 14.697 16 14.697C15.7348 14.697 15.4804 14.5917 15.2929 14.4041C15.1054 14.2166 15 13.9622 15 13.697V7.69702C15 7.4318 15.1054 7.17745 15.2929 6.98991C15.4804 6.80238 15.7348 6.69702 16 6.69702V6.69702ZM12 7.69702C12.2652 7.69702 12.5196 7.80238 12.7071 7.98991C12.8946 8.17745 13 8.4318 13 8.69702V12.697C13 12.9622 12.8946 13.2166 12.7071 13.4041C12.5196 13.5917 12.2652 13.697 12 13.697C11.7348 13.697 11.4804 13.5917 11.2929 13.4041C11.1054 13.2166 11 12.9622 11 12.697V8.69702C11 8.4318 11.1054 8.17745 11.2929 7.98991C11.4804 7.80238 11.7348 7.69702 12 7.69702V7.69702ZM8 4.69702C8.26522 4.69702 8.51957 4.80238 8.70711 4.98991C8.89464 5.17745 9 5.4318 9 5.69702V15.697C9 15.9622 8.89464 16.2166 8.70711 16.4041C8.51957 16.5917 8.26522 16.697 8 16.697C7.73478 16.697 7.48043 16.5917 7.29289 16.4041C7.10536 16.2166 7 15.9622 7 15.697V5.69702C7 5.4318 7.10536 5.17745 7.29289 4.98991C7.48043 4.80238 7.73478 4.69702 8 4.69702V4.69702ZM4 6.69702C4.26522 6.69702 4.51957 6.80238 4.70711 6.98991C4.89464 7.17745 5 7.4318 5 7.69702V13.697C5 13.9622 4.89464 14.2166 4.70711 14.4041C4.51957 14.5917 4.26522 14.697 4 14.697C3.73478 14.697 3.48043 14.5917 3.29289 14.4041C3.10536 14.2166 3 13.9622 3 13.697V7.69702C3 7.4318 3.10536 7.17745 3.29289 6.98991C3.48043 6.80238 3.73478 6.69702 4 6.69702V6.69702Z" fill="#D85888"/>
</svg>
