<svg width="16" height="16" viewBox="0 0 16 16" fill="none" xmlns="http://www.w3.org/2000/svg">
<g clip-path="url(#clip0_210_370)">
<mask id="mask0_210_370" style="mask-type:alpha" maskUnits="userSpaceOnUse" x="0" y="0" width="17" height="16">
<path d="M3.612 15.443C3.226 15.641 2.788 15.294 2.866 14.851L3.696 10.121L0.172996 6.76501C-0.156004 6.45101 0.0149963 5.87701 0.455996 5.81501L5.354 5.11901L7.538 0.792012C7.735 0.402012 8.268 0.402012 8.465 0.792012L10.649 5.11901L15.547 5.81501C15.988 5.87701 16.159 6.45101 15.829 6.76501L12.307 10.121L13.137 14.851C13.215 15.294 12.777 15.641 12.391 15.443L8 13.187L3.612 15.443Z" fill="white"/>
</mask>
<g mask="url(#mask0_210_370)">
<path d="M3.61201 15.443L4.06842 16.3328L4.06924 16.3324L3.61201 15.443ZM2.86601 14.851L3.85086 15.0244L3.85096 15.0238L2.86601 14.851ZM3.69601 10.121L4.68096 10.2938L4.77352 9.76635L4.38574 9.39695L3.69601 10.121ZM0.173009 6.76501L-0.517415 7.48842L-0.516728 7.48907L0.173009 6.76501ZM0.456009 5.81501L0.59523 6.80527L0.596695 6.80507L0.456009 5.81501ZM5.35401 5.11901L5.49469 6.10907L6.01152 6.03563L6.24674 5.56961L5.35401 5.11901ZM7.53801 0.792012L6.64542 0.34114L6.64528 0.341418L7.53801 0.792012ZM8.46501 0.792012L9.35774 0.341418L9.3576 0.34114L8.46501 0.792012ZM10.649 5.11901L9.75628 5.56961L9.9915 6.03563L10.5083 6.10907L10.649 5.11901ZM15.547 5.81501L15.4063 6.80507L15.4078 6.80527L15.547 5.81501ZM15.829 6.76501L15.1397 6.04056L15.1392 6.04105L15.829 6.76501ZM12.307 10.121L11.6172 9.39705L11.2295 9.76644L11.322 10.2938L12.307 10.121ZM13.137 14.851L12.152 15.0238L12.1521 15.0244L13.137 14.851ZM12.391 15.443L11.934 16.3325L11.9346 16.3328L12.391 15.443ZM8.00001 13.187L8.457 12.2975L7.99985 12.0627L7.54277 12.2977L8.00001 13.187ZM3.1556 14.5532C3.34545 14.4559 3.55801 14.5021 3.68639 14.6039C3.81107 14.7028 3.87874 14.866 3.85086 15.0244L1.88116 14.6776C1.67819 15.8304 2.85496 16.9552 4.06842 16.3328L3.1556 14.5532ZM3.85096 15.0238L4.68096 10.2938L2.71106 9.94818L1.88106 14.6782L3.85096 15.0238ZM4.38574 9.39695L0.862746 6.04095L-0.516728 7.48907L3.00627 10.8451L4.38574 9.39695ZM0.863433 6.04161C1.00143 6.17332 1.02188 6.3543 0.984138 6.48101C0.945926 6.60928 0.816993 6.7741 0.59523 6.80527L0.316789 4.82475C-1.01725 5.0123 -1.40287 6.64334 -0.517414 7.48842L0.863433 6.04161ZM0.596695 6.80507L5.49469 6.10907L5.21332 4.12896L0.315324 4.82496L0.596695 6.80507ZM6.24674 5.56961L8.43074 1.24261L6.64528 0.341418L4.46128 4.66842L6.24674 5.56961ZM8.4306 1.24288C8.35311 1.39629 8.1831 1.49951 8.00151 1.49951C7.81992 1.49951 7.64991 1.39629 7.57242 1.24288L9.3576 0.34114C8.79075 -0.781031 7.21226 -0.781031 6.64542 0.34114L8.4306 1.24288ZM7.57228 1.24261L9.75628 5.56961L11.5417 4.66842L9.35774 0.341418L7.57228 1.24261ZM10.5083 6.10907L15.4063 6.80507L15.6877 4.82496L10.7897 4.12896L10.5083 6.10907ZM15.4078 6.80527C15.1861 6.7741 15.0569 6.60927 15.0186 6.48044C14.9807 6.35292 15.0018 6.17175 15.1397 6.04056L16.5183 7.48946C17.4064 6.64448 17.0206 5.01235 15.6862 4.82475L15.4078 6.80527ZM15.1392 6.04105L11.6172 9.39705L12.9968 10.845L16.5188 7.48897L15.1392 6.04105ZM11.322 10.2938L12.152 15.0238L14.1219 14.6782L13.2919 9.94818L11.322 10.2938ZM12.1521 15.0244C12.1243 14.866 12.1919 14.7028 12.3166 14.6039C12.445 14.5021 12.6576 14.4559 12.8474 14.5532L11.9346 16.3328C13.148 16.9552 14.3248 15.8304 14.1218 14.6776L12.1521 15.0244ZM12.848 14.5535L8.457 12.2975L7.54302 14.0765L11.934 16.3325L12.848 14.5535ZM7.54277 12.2977L3.15477 14.5537L4.06924 16.3324L8.45724 14.0764L7.54277 12.2977Z" fill="#717179"/>
</g>
</g>
<defs>
<clipPath id="clip0_210_370">
<rect width="16" height="16" fill="white"/>
</clipPath>
</defs>
</svg>
